<svg xmlns="http://www.w3.org/2000/svg" width="960" height="600" viewBox="0 0 960 600">
<defs><linearGradient id="base16" x1="0" y1="0" x2="0" y2="1">
  <stop offset="0" stop-color="#f7f8fc"/><stop offset="1" stop-color="#edf1f9"/>
</linearGradient></defs>
<rect width="960" height="600" fill="url(#base16)"/><g><polyline points="-14 -2.42 0 -1.17 14 -2.82 28 -6.74 42 -11.39 56 -15.23 70 -17.41 84 -18.71 98 -19.45 112 -19.92 126 -19.91 140 -18.11 154 -15.41 168 -12.88 182 -11.58 196 -11.83 210 -12.99 224 -14.34 238 -15.19 252 -15.61 266 -16.1 280 -17.08 294 -18.98 308 -22.17 322 -26.06 336 -29.71 350 -32.17 364 -32.88 378 -32.44 392 -31.6 406 -31.09 420 -31.37 434 -31.9 448 -32.46 462 -32.83 476 -33.05 490 -34.13 504 -35.96 518 -38.22 532 -40.55 546 -42.38 560 -43.76 574 -44.93 588 -46.09 602 -46.57 616 -46.21 630 -45.39 644 -44.52 658 -43.64 672 -42.7 686 -41.96 700 -41.7 714 -42.1 728 -42.92 742 -43.85 756 -44.57 770 -45.27 784 -47.38 798 -50.08 812 -52.33 826 -53.16 840 -52.79 854 -52.01 868 -51.56 882 -52.15 896 -53.81 910 -55.83 924 -57.52 938 -58.19 952 -57.65 966 -56.49" fill="none" stroke="rgb(124,58,237)" stroke-width="1.8" opacity="0.47" stroke-linejoin="round"/><polyline points="-14 0.36 0 0.62 14 -0.01 28 -1.61 42 -3.79 56 -6.17 70 -8.12 84 -9.24 98 -9.93 112 -10.58 126 -11.64 140 -13.22 154 -14.91 168 -16.26 182 -16.79 196 -16.18 210 -15.1 224 -14.35 238 -14.69 252 -15.57 266 -16.54 280 -17.47 294 -18.24 308 -19.22 322 -20.43 336 -21.39 350 -21.63 364 -21.31 378 -21.08 392 -20.87 406 -20.6 420 -20.22 434 -19.81 448 -19.46 462 -19.25 476 -19.22 490 -19.24 504 -19.48 518 -20.13 532 -21.38 546 -23.32 560 -25.62 574 -27.88 588 -29.7 602 -30.75 616 -31.14 630 -31.12 644 -30.95 658 -30.62 672 -30.12 686 -29.7 700 -29.6 714 -30.1 728 -31.16 742 -32.44 756 -33.62 770 -34.18 784 -33.52 798 -32.4 812 -31.68 826 -32.11 840 -33.24 854 -34.74 868 -36.45 882 -38.26 896 -41.05 910 -44.37 924 -47.13 938 -48.21 952 -47.78 966 -46.55" fill="none" stroke="rgb(121,61,236)" stroke-width="0.9" opacity="0.48" stroke-linejoin="round"/><polyline points="-14 17.62 0 17.4 14 17.54 28 17.78 42 17.84 56 17.47 70 16.81 84 16.43 98 16.02 112 15.26 126 13.77 140 11.32 154 8.37 168 5.38 182 2.91 196 1.52 210 0.83 224 0.32 238 -0.53 252 -1.71 266 -2.91 280 -3.86 294 -4.3 308 -4.4 322 -4.3 336 -3.85 350 -2.89 364 -1.51 378 0.01 392 1.66 406 3.45 420 5.28 434 6.91 448 8.15 462 8.83 476 8.9 490 8.73 504 8.38 518 7.83 532 7.01 546 5.16 560 2.59 574 -0.06 588 -2.17 602 -4.26 616 -6.65 630 -9.13 644 -11.47 658 -13.05 672 -13.65 686 -13.75 700 -13.85 714 -13.93 728 -13.32 742 -12.35 756 -11.38 770 -10.66 784 -9.96 798 -9.49 812 -9.47 826 -10.14 840 -11.48 854 -13.06 868 -14.4 882 -15.07 896 -15.63 910 -16.27 924 -16.8 938 -17.01 952 -16.93 966 -16.82" fill="none" stroke="rgb(118,64,236)" stroke-width="0.9" opacity="0.48" stroke-linejoin="round"/><polyline points="-14 33.31 0 34.46 14 34.6 28 34.94 42 35.29 56 35.52 70 35.24 84 34.29 98 33.2 112 32.53 126 32.51 140 32.29 154 31.62 168 30.38 182 28.34 196 25.21 210 21.71 224 18.7 238 17.05 252 16.97 266 17.76 280 18.66 294 18.89 308 18.58 322 18.08 336 17.34 350 16.3 364 15.2 378 14.3 392 13.31 406 11.95 420 9.71 434 6.4 448 3.1 462 0.94 476 0.72 490 1.26 504 2.24 518 3.56 532 5.19 546 7.67 560 10.5 574 12.84 588 13.86 602 13.4 616 12.11 630 10.62 644 9.54 658 9.35 672 9.77 686 10.29 700 10.41 714 10.14 728 10.15 742 10.15 756 9.79 770 8.87 784 7.89 798 6.88 812 5.79 826 4.54 840 2.79 854 0.86 868 -0.83 882 -1.86 896 -3.04 910 -4.43 924 -5.58 938 -6.03 952 -4.58 966 -1.25" fill="none" stroke="rgb(115,67,235)" stroke-width="0.9" opacity="0.49" stroke-linejoin="round"/><polyline points="-14 47.21 0 47.48 14 47.62 28 47.91 42 48.17 56 48.21 70 48.09 84 48.16 98 48.46 112 48.96 126 49.64 140 50.31 154 50.96 168 51.61 182 52.28 196 52.88 210 53.19 224 52.97 238 51.96 252 49.54 266 46.09 280 42.38 294 39.14 308 36.62 322 34.49 336 32.5 350 30.41 364 27.99 378 25.38 392 22.85 406 20.7 420 18.91 434 16.98 448 15.27 462 14.22 476 14.33 490 15.91 504 18.32 518 20.83 532 22.77 546 24.68 560 26.63 574 28.39 588 29.76 602 31.17 616 32.7 630 34.05 644 34.89 658 34.7 672 33.52 686 32.04 700 30.92 714 30.49 728 30.15 742 29.67 756 28.8 770 27.49 784 26.28 798 25.13 812 23.91 826 22.55 840 21.18 854 19.9 868 18.74 882 17.76 896 17.25 910 17.15 924 17.24 938 17.32 952 17.7 966 18.65" fill="none" stroke="rgb(112,70,235)" stroke-width="0.9" opacity="0.50" stroke-linejoin="round"/><polyline points="-14 74.27 0 73.96 14 73.37 28 72.01 42 70.49 56 69.41 70 69.15 84 69.44 98 70.21 112 71.33 126 72.73 140 74.22 154 75.58 168 76.56 182 76.86 196 76.15 210 74.87 224 73.6 238 72.86 252 72.18 266 71.15 280 69.67 294 67.62 308 65.69 322 64.09 336 62.35 350 60 364 56.41 378 51.8 392 47.27 406 43.91 420 42.38 434 41.79 448 41.73 462 41.86 476 42.1 490 43.41 504 45.56 518 48.04 532 50.46 546 53.2 560 56.06 574 58.59 588 60.33 602 61.52 616 62.39 630 62.84 644 62.77 658 62.23 672 61.45 686 60.63 700 59.93 714 59 728 57.05 742 54.63 756 52.34 770 50.81 784 50.15 798 49.76 812 49.05 826 47.47 840 45.39 854 43.32 868 41.69 882 40.88 896 39.86 910 38.51 924 37.35 938 36.89 952 38.02 966 40.45" fill="none" stroke="rgb(109,74,234)" stroke-width="0.9" opacity="0.51" stroke-linejoin="round"/><polyline points="-14 92.16 0 92.94 14 92.23 28 90.69 42 89.21 56 88.69 70 89.49 84 90.83 98 92.39 112 93.9 126 95.09 140 96.01 154 96.85 168 97.79 182 99.18 196 101.92 210 105.2 224 107.87 238 108.77 252 106.79 266 102.87 280 98.48 294 95.05 308 92.91 322 91.32 336 89.88 350 88.15 364 86 378 83.91 392 82.27 406 81.46 420 81.92 434 83.54 448 85.48 462 86.84 476 86.84 490 85.59 504 83.76 518 82 532 80.94 546 80.71 560 81.06 574 81.75 588 82.55 602 83.79 616 85.55 630 87.62 644 89.79 658 91.53 672 92.51 686 92.84 700 92.64 714 92.05 728 91.1 742 89.51 756 87.03 770 83.62 784 80.16 798 77.1 812 74.79 826 73.57 840 73.26 854 73.41 868 73.63 882 73.51 896 72.51 910 71.01 924 69.67 938 69.12 952 69.92 966 71.8" fill="none" stroke="rgb(106,77,233)" stroke-width="0.9" opacity="0.52" stroke-linejoin="round"/><polyline points="-14 109.89 0 110.57 14 110.88 28 111.59 42 112.38 56 112.92 70 112.4 84 110.38 98 107.93 112 106.16 126 106.01 140 107.13 154 108.87 168 110.6 182 111.87 196 113.6 210 115.6 224 117.41 238 118.58 252 119.43 266 120.22 280 121 294 121.79 308 121.69 322 120.49 336 118.85 350 117.47 364 116.36 378 114.89 392 113.25 406 111.6 420 110.38 434 110.2 448 110.59 462 111.02 476 110.91 490 109.73 504 107.88 518 105.85 532 104.12 546 102.74 560 101.63 574 100.76 588 100.11 602 100.45 616 101.65 630 102.97 644 103.68 658 103.38 672 102.48 686 101.37 700 100.45 714 99.85 728 99.27 742 98.9 756 98.96 770 99.5 784 99.97 798 100.39 812 100.83 826 101.35 840 101.74 854 101.91 868 101.78 882 101.26 896 100.05 910 98.48 924 97.14 938 96.6 952 97.53 966 99.52" fill="none" stroke="rgb(103,80,233)" stroke-width="0.9" opacity="0.52" stroke-linejoin="round"/><polyline points="-14 116.8 0 115.51 14 116.51 28 118.83 42 121.5 56 123.54 70 124.68 84 125.79 98 126.7 112 127.24 126 127.06 140 125.67 154 123.66 168 121.7 182 120.51 196 120.72 210 121.89 224 123.41 238 124.66 252 124.81 266 124.18 280 123.37 294 122.99 308 123.49 322 124.59 336 125.84 350 126.76 364 127.2 378 127.66 392 128.67 406 130.71 420 133.68 434 136.06 448 137.71 462 138.55 476 138.7 490 138.94 504 139.08 518 138.78 532 137.8 546 136.94 560 136.31 574 135.72 588 134.93 602 133.17 616 130.41 630 127.15 644 123.87 658 120.41 672 116.72 686 113.56 700 111.7 714 111.28 728 111.2 742 111.36 756 111.71 770 112.44 784 114.12 798 116.06 812 117.46 826 117.47 840 115.7 854 113.03 868 110.51 882 109.21 896 109.53 910 110.78 924 112.11 938 112.69 952 112.25 966 111.47" fill="none" stroke="rgb(100,83,232)" stroke-width="0.9" opacity="0.53" stroke-linejoin="round"/><polyline points="-14 115.28 0 115.75 14 115.67 28 115.43 42 115.02 56 114.43 70 113.63 84 112.71 98 112.05 112 112.04 126 112.9 140 114.14 154 115.37 168 116.24 182 116.41 196 115.9 210 115.34 224 115.38 238 116.64 252 118.49 266 120.83 280 124.02 294 128.43 308 134.06 322 140.08 336 145.48 350 149.27 364 151.29 378 152.61 392 153.65 406 154.82 420 156.2 434 157.14 448 157.68 462 157.9 476 157.95 490 157.94 504 157.41 518 155.82 532 152.71 546 148.71 560 144.71 574 141.46 588 139.69 602 138.18 616 136.39 630 134.81 644 133.94 658 134.84 672 137.37 686 140.09 700 141.54 714 140.9 728 139.24 742 137.33 756 135.95 770 135.46 784 134.8 798 133.95 812 133.07 826 132.38 840 132.29 854 132.44 868 132.29 882 131.28 896 128.73 910 125.44 924 122.63 938 121.51 952 122.84 966 125.91" fill="none" stroke="rgb(97,86,231)" stroke-width="0.9" opacity="0.54" stroke-linejoin="round"/><polyline points="-14 98.01 0 98.25 14 97.87 28 97.11 42 96.47 56 96.51 70 97.66 84 99.7 98 102.17 112 104.58 126 106.54 140 108.32 154 110.43 168 113.34 182 117.4 196 121.76 210 125.87 224 129.37 238 131.96 252 135.2 266 139.21 280 143.32 294 146.85 308 149.85 322 152.71 336 155.51 350 158.34 364 160.99 378 163 392 164.34 406 164.97 420 164.67 434 163.29 448 161.59 462 160.38 476 160.43 490 161.78 504 163.55 518 164.82 532 164.78 546 164.22 560 163.44 574 162.38 588 161 602 160.01 616 159.68 630 159.81 644 160.23 658 160.15 672 159.25 686 158.15 700 157.43 714 157.46 728 157.76 742 157.89 756 157.44 770 155.98 784 153.59 798 151.05 812 149.21 826 148.79 840 149.53 854 150.84 868 152.19 882 153.05 896 153.09 910 152.61 924 152.04 938 151.77 952 151.71 966 151.38" fill="none" stroke="rgb(95,89,231)" stroke-width="0.9" opacity="0.55" stroke-linejoin="round"/><polyline points="-14 106.87 0 107.66 14 107.99 28 108.93 42 110.42 56 112.41 70 114.58 84 116.56 98 118.51 112 120.61 126 122.96 140 125.4 154 127.81 168 130.1 182 132.33 196 135.25 210 138.57 224 141.77 238 144.37 252 146.74 266 149.24 280 152 294 155.14 308 158.58 322 162.1 336 165.56 350 168.81 364 172.19 378 176.04 392 179.87 406 183.15 420 185.73 434 188.12 448 190.05 462 191.16 476 191.08 490 189.65 504 187.37 518 184.81 532 182.37 546 178.84 560 174.61 574 170.74 588 168.23 602 166.93 616 166.23 630 165.89 644 165.68 658 165.93 672 166.87 686 167.92 700 168.52 714 168.74 728 169.5 742 170.39 756 170.96 770 170.85 784 170.28 798 169.6 812 169.12 826 168.99 840 168.2 854 166.96 868 165.85 882 165.39 896 165.28 910 165.23 924 165.23 938 165.23 952 165.86 966 167.04" fill="none" stroke="rgb(92,92,230)" stroke-width="0.9" opacity="0.55" stroke-linejoin="round"/><polyline points="-14 143.36 0 143.73 14 143.02 28 141.34 42 139.36 56 137.76 70 137.47 84 138.83 98 140.88 112 142.67 126 143.19 140 142.32 154 141.22 168 141.08 182 143.05 196 146.95 210 151.63 224 155.88 238 158.57 252 159.54 266 159.76 280 160.16 294 161.69 308 164.03 322 166.55 336 169.23 350 172.07 364 175.11 378 178.26 392 181.31 406 184.04 420 186.54 434 189.25 448 191.63 462 193.09 476 193.19 490 192.64 504 191.85 518 191.12 532 190.72 546 190.39 560 189.83 574 188.84 588 187.22 602 184.66 616 181.35 630 177.7 644 174.1 658 170.56 672 167.12 686 164.37 700 162.84 714 163.1 728 164.85 742 167.05 756 168.67 770 168.82 784 167.83 798 166.5 812 165.58 826 165.79 840 166.93 854 168.39 868 169.56 882 169.92 896 170.06 910 170.28 924 170.49 938 170.57 952 170.13 966 169.31" fill="none" stroke="rgb(89,95,230)" stroke-width="0.9" opacity="0.56" stroke-linejoin="round"/><polyline points="-14 152.67 0 152.15 14 152.8 28 154.35 42 156.2 56 157.74 70 158.47 84 158.54 98 158.32 112 158.22 126 158.34 140 158.09 154 157.54 168 156.89 182 156.48 196 157.57 210 159.73 224 162.2 238 164.21 252 165.21 266 165.98 280 167.59 294 171.1 308 176.25 322 181.79 336 186.92 350 190.84 364 193.98 378 197.42 392 200.53 406 202.65 420 202.98 434 201.41 448 199.15 462 197.45 476 197.38 490 198.35 504 199.51 518 200.02 532 199.23 546 198.13 560 196.97 574 195.5 588 193.47 602 189.82 616 184.92 630 179.99 644 176.23 658 174.79 672 175.21 686 176.26 700 176.7 714 175.66 728 173.8 742 171.97 756 171.03 770 171.61 784 173.05 798 174.72 812 176.04 826 176.43 840 175.68 854 174.39 868 173.27 882 173.02 896 173.93 910 175.44 924 176.84 938 177.42 952 177.36 966 177.27" fill="none" stroke="rgb(86,98,229)" stroke-width="0.9" opacity="0.57" stroke-linejoin="round"/><polyline points="-14 170.71 0 170.88 14 170.54 28 169.71 42 168.68 56 167.75 70 167.35 84 167.69 98 168.39 112 169.06 126 169.4 140 169.65 154 170.12 168 171.08 182 172.82 196 175.22 210 177.86 224 180.31 238 182.18 252 184.05 266 186.3 280 189.04 294 192.37 308 195.62 322 198.43 336 201.11 350 203.97 364 207.24 378 210.57 392 213.32 406 214.85 420 214.65 434 213.13 448 211.21 462 209.83 476 209.65 490 209.67 504 209.45 518 208.73 532 207.3 546 205.93 560 204.55 574 202.81 588 200.32 602 197.05 616 193.51 630 190.25 644 187.83 658 186.12 672 184.58 686 183.23 700 182.09 714 181.63 728 182.46 742 183.98 756 185.57 770 186.72 784 187.64 798 188.4 812 189.03 826 189.6 840 190.44 854 191.28 868 191.73 882 191.41 896 190.37 910 189.07 924 187.97 938 187.54 952 187.28 966 186.73" fill="none" stroke="rgb(83,101,228)" stroke-width="1.8" opacity="0.57" stroke-linejoin="round"/><polyline points="-14 177.45 0 177.49 14 177.68 28 178.28 42 179.34 56 180.91 70 183.1 84 185.73 98 188.12 112 189.61 126 189.76 140 189.19 154 188.19 168 186.99 182 185.8 196 184.66 210 183.91 224 183.92 238 185.07 252 187.44 266 190.49 280 193.58 294 196.11 308 197.66 322 198.68 336 199.82 350 201.73 364 204.89 378 209.02 392 213.65 406 218.31 420 222.61 434 226.3 448 229.06 462 230.58 476 230.59 490 229.29 504 226.84 518 223.38 532 219 546 213.49 560 207.67 574 202.62 588 199.39 602 197.43 616 195.97 630 194.9 644 194.08 658 194.08 672 195.04 686 196.08 700 196.33 714 195.47 728 194.49 742 193.72 756 193.45 770 193.94 784 195.03 798 196.32 812 197.42 826 197.91 840 197.49 854 196.72 868 196.31 882 196.93 896 198.2 910 199.51 924 200.52 938 200.91 952 200.7 966 200.06" fill="none" stroke="rgb(80,105,228)" stroke-width="0.9" opacity="0.58" stroke-linejoin="round"/><polyline points="-14 196.92 0 196.77 14 197.89 28 200.47 42 203.4 56 205.52 70 205.97 84 205.12 98 203.75 112 202.63 126 201.98 140 200.47 154 198.47 168 196.55 182 195.28 196 195.08 210 195.64 224 196.6 238 197.64 252 199.54 266 202.11 280 204.64 294 206.39 308 206.41 322 205.23 336 204.14 350 204.4 364 206.02 378 207.5 392 208.69 406 209.43 420 210.08 434 211.66 448 213.48 462 214.75 476 214.74 490 213.63 504 212.2 518 211.21 532 211.45 546 213.17 560 215.36 574 216.86 588 216.53 602 215.4 616 214.47 630 213.86 644 213.68 658 213.28 672 212.19 686 210.94 700 210.07 714 210.28 728 211.77 742 213.7 756 215.24 770 215.86 784 216.44 798 217.06 812 217.68 826 218.12 840 217.53 854 216.33 868 215.19 882 214.75 896 213.88 910 212.46 924 211.16 938 210.62 952 211.43 966 213.21" fill="none" stroke="rgb(77,108,227)" stroke-width="0.9" opacity="0.59" stroke-linejoin="round"/><polyline points="-14 224.25 0 223.41 14 223.52 28 223.58 42 223.17 56 221.88 70 219.47 84 216.47 98 213.71 112 211.98 126 211.61 140 211.34 154 211.24 168 211.58 182 212.51 196 213.66 210 214.77 224 215.66 238 216.22 252 217.5 266 219.53 280 221.77 294 223.69 308 224.96 322 225.73 336 226.24 350 226.71 364 227.76 378 229.58 392 231.43 406 232.52 420 232.1 434 230.28 448 228.06 462 226.49 476 226.33 490 226.77 504 227.29 518 227.53 532 227.25 546 227.43 560 227.98 574 228.35 588 228.01 602 226.12 616 223.13 630 219.99 644 217.7 658 216.38 672 215.47 686 214.97 700 214.91 714 214.89 728 214.25 742 213.47 756 213.05 770 213.58 784 215.28 798 217.39 812 219.1 826 219.73 840 220.03 854 220.28 868 220.5 882 220.72 896 221.01 910 221.32 924 221.55 938 221.64 952 221.42 966 221.02" fill="none" stroke="rgb(74,111,226)" stroke-width="0.9" opacity="0.60" stroke-linejoin="round"/><polyline points="-14 242.2 0 241.36 14 241.18 28 240.75 42 240.27 56 239.92 70 240.3 84 241.78 98 243.57 112 244.82 126 244.86 140 243.96 154 242.57 168 241.1 182 239.91 196 238.94 210 238.21 224 237.83 238 237.88 252 238.27 266 238.86 280 239.57 294 240.32 308 240.98 322 241.46 336 241.71 350 241.66 364 241.59 378 241.75 392 241.83 406 241.51 420 240.73 434 240.08 448 239.62 462 239.38 476 239.21 490 238.3 504 236.81 518 235.09 532 233.43 546 231.65 560 229.91 574 228.54 588 227.86 602 228.54 616 230.28 630 232.28 644 233.77 658 233.58 672 231.83 686 229.81 700 228.8 714 229.91 728 232.6 742 235.64 756 237.76 770 238.01 784 237.16 798 235.93 812 234.96 826 234.77 840 234.67 854 234.5 868 234.31 882 234.22 896 234.88 910 236.09 924 237.24 938 237.72 952 237.14 966 236" fill="none" stroke="rgb(71,114,226)" stroke-width="1.8" opacity="0.60" stroke-linejoin="round"/><polyline points="-14 264.32 0 263.63 14 264.45 28 266.36 42 268.51 56 270.08 70 270.47 84 270.18 98 269.89 112 270.23 126 271.44 140 272.31 154 272.68 168 272.51 182 271.75 196 270.55 210 269.34 224 268.59 238 268.73 252 269.11 266 269.35 280 269.37 294 269.09 308 268.13 322 266.51 336 264.58 350 262.73 364 261.26 378 260.18 392 259.34 406 258.6 420 258.3 434 259.27 448 260.76 462 261.89 476 262.11 490 262.49 504 263.21 518 264.23 532 265.54 546 267.2 560 268.9 574 270.25 588 270.84 602 270.25 616 268.71 630 266.73 644 264.8 658 262.75 672 260.41 686 258.35 700 257.14 714 256.66 728 255.85 742 255.01 756 254.51 770 254.61 784 255.13 798 255.9 812 256.76 826 257.68 840 259.26 854 261.39 868 263.78 882 266.11 896 267.88 910 269.01 924 269.61 938 269.77 952 270.01 966 270.47" fill="none" stroke="rgb(68,117,225)" stroke-width="0.9" opacity="0.61" stroke-linejoin="round"/><polyline points="-14 280.7 0 279.53 14 279.79 28 280.48 42 281.49 56 282.69 70 284.45 84 287.24 98 290.4 112 293.24 126 295.36 140 297.36 154 299.2 168 300.74 182 301.83 196 302.31 210 302.49 224 302.77 238 303.51 252 304.35 266 305.07 280 305.62 294 306 308 306.29 322 306.41 336 306.13 350 305.2 364 303.43 378 301.15 392 298.93 406 297.32 420 296.76 434 296.92 448 297.42 462 297.84 476 297.85 490 297.49 504 297.04 518 296.76 532 296.86 546 296.88 560 296.69 574 296.34 588 295.85 602 294.66 616 292.6 630 289.91 644 286.82 658 284.3 672 282.88 686 281.95 700 280.88 714 279.79 728 279.79 742 280.51 756 281.54 770 282.42 784 282.86 798 283.04 812 283.15 826 283.38 840 283.69 854 284.02 868 284.3 882 284.44 896 283.65 910 282.18 924 280.78 938 280.19 952 280.08 966 279.89" fill="none" stroke="rgb(65,120,225)" stroke-width="0.9" opacity="0.62" stroke-linejoin="round"/><polyline points="-14 293.66 0 294.14 14 293.84 28 293.4 42 293.48 56 294.75 70 297.19 84 299.62 98 301.78 112 303.44 126 304.63 140 306.06 154 307.43 168 308.33 182 308.41 196 307.88 210 307.31 224 307.24 238 308.17 252 309.48 266 310.97 280 312.81 294 315.19 308 318.21 322 321.62 336 325.06 350 328.21 364 330.84 378 333.12 392 335.22 406 337.32 420 339.36 434 340.85 448 341.79 462 342.24 476 342.13 490 341.01 504 339.07 518 336.58 532 333.81 546 330.81 560 327.58 574 324.15 588 320.57 602 317.26 616 314.32 630 311.56 644 308.81 658 305.7 672 302.25 686 298.82 700 295.8 714 293.78 728 292.77 742 291.78 756 289.73 770 285.75 784 280.39 798 274.88 812 270.45 826 268.27 840 268.35 854 269.76 868 271.55 882 272.81 896 273.68 910 274.4 924 274.88 938 275.05 952 274.51 966 273.5" fill="none" stroke="rgb(62,123,224)" stroke-width="1.8" opacity="0.61" stroke-linejoin="round"/><polyline points="-14 308.27 0 307.19 14 307.84 28 309.37 42 311.14 56 312.51 70 313.31 84 314.12 98 314.91 112 315.61 126 316 140 315.7 154 315.2 168 315.06 182 315.79 196 317.14 210 318.76 224 320.38 238 321.79 252 324.69 266 328.87 280 333.23 294 336.67 308 339.32 322 341.89 336 344.55 350 347.43 364 350.38 378 352.98 392 355.19 406 356.96 420 358.29 434 359.28 448 359.93 462 360.24 476 360.12 490 359.14 504 357.68 518 356.25 532 355.29 546 354.33 560 352.96 574 350.95 588 348.1 602 344.9 616 341.79 630 338.89 644 336.31 658 334.27 672 332.64 686 331.06 700 329.13 714 326.42 728 322.75 742 318.34 756 313.45 770 308.34 784 303.43 798 299.08 812 295.63 826 293.35 840 291.72 854 290.47 868 289.51 882 288.68 896 287.38 910 285.78 924 284.43 938 283.9 952 284.31 966 285.56" fill="none" stroke="rgb(59,126,223)" stroke-width="0.9" opacity="0.60" stroke-linejoin="round"/><polyline points="-14 344.63 0 344.6 14 344.57 28 344.57 42 344.75 56 345.25 70 346.23 84 347.51 98 348.63 112 349.14 126 348.59 140 346.92 154 344.6 168 342.1 182 339.87 196 338.18 210 337.11 224 336.73 238 337.09 252 337.98 266 339.3 280 341.07 294 343.28 308 345.75 322 348.17 336 350.34 350 352.07 364 353.69 378 355.78 392 358.04 406 360.13 420 361.6 434 362.1 448 362.02 462 361.78 476 361.88 490 362.79 504 364.09 518 365.28 532 365.93 546 366.6 560 367.37 574 368 588 368.28 602 367.78 616 366.71 630 365.61 644 364.99 658 364.81 672 364.52 686 363.98 700 363.07 714 361.51 728 359.06 742 356.02 756 352.72 770 349.51 784 346.83 798 344.67 812 343.03 826 341.89 840 341.44 854 341.6 868 342.27 882 343.31 896 344.04 910 344.35 924 344.41 938 344.4 952 344.85 966 345.8" fill="none" stroke="rgb(56,129,223)" stroke-width="0.9" opacity="0.60" stroke-linejoin="round"/><polyline points="-14 372.46 0 373.33 14 372.88 28 371.69 42 370.04 56 368.2 70 366.12 84 363.67 98 361.43 112 360.02 126 360.11 140 361.88 154 364.36 168 366.5 182 367.3 196 366.42 210 364.72 224 363.13 238 362.54 252 362.57 266 362.73 280 362.84 294 362.71 308 363.5 322 365.45 336 367.59 350 368.94 364 368.99 378 368.33 392 367.51 406 367.05 420 367.33 434 368.05 448 368.86 462 369.43 476 369.37 490 368.6 504 367.71 518 367.35 532 368.03 546 368.5 560 368.51 574 368.31 588 368.16 602 368.53 616 369.31 630 370.15 644 370.68 658 371.21 672 372.14 686 373.08 700 373.65 714 373.39 728 372.21 742 370.67 756 369.28 770 368.56 784 368.5 798 368.85 812 369.35 826 369.84 840 371.01 854 372.69 868 374.52 882 376.13 896 377.61 910 378.9 924 379.81 938 380.14 952 380.19 966 380.24" fill="none" stroke="rgb(53,132,222)" stroke-width="0.9" opacity="0.59" stroke-linejoin="round"/><polyline points="-14 388.17 0 388.3 14 387.76 28 386.53 42 385.22 56 384.42 70 384.38 84 384.63 98 385.07 112 385.6 126 386.17 140 386.87 154 387.79 168 389.01 182 390.6 196 392.35 210 393.83 224 394.65 238 394.44 252 393.81 266 393.05 280 392.14 294 391.03 308 389.29 322 387.09 336 385.11 350 384.03 364 383.94 378 384.1 392 384.21 406 384.01 420 383.46 434 383.14 448 383.01 462 382.98 476 383.09 490 383.7 504 384.45 518 384.88 532 384.49 546 382.72 560 380.11 574 377.44 588 375.49 602 374.66 616 374.37 630 373.86 644 372.35 658 369.35 672 365.66 686 362.55 700 361.25 714 362.33 728 364.62 742 367.65 756 371.02 770 374.2 784 376.72 798 378.72 812 380.41 826 382.04 840 384.16 854 386.57 868 388.93 882 390.94 896 393.63 910 396.76 924 399.32 938 400.33 952 400.08 966 399.46" fill="none" stroke="rgb(50,136,221)" stroke-width="0.9" opacity="0.58" stroke-linejoin="round"/><polyline points="-14 414.55 0 413.54 14 414.51 28 416.64 42 418.76 56 419.72 70 418.86 84 417.02 98 414.77 112 412.66 126 410.86 140 408.31 154 405.25 168 402.03 182 399.05 196 396.78 210 395.19 224 394.16 238 393.57 252 393.31 266 393.43 280 394.06 294 395.28 308 396.7 322 397.93 336 398.89 350 399.5 364 399.75 378 399.76 392 399.62 406 399.44 420 399.73 434 401.21 448 403.08 462 404.43 476 404.41 490 403.07 504 400.94 518 398.59 532 396.46 546 393.89 560 391.09 574 388.69 588 387.3 602 386.79 616 386.76 630 387.03 644 387.43 658 388.17 672 389.35 686 390.52 700 391.28 714 391.74 728 392.79 742 394.12 756 395.39 770 396.1 784 395.72 798 395.06 812 395.02 826 396.47 840 399.37 854 402.89 868 406.15 882 408.32 896 408.93 910 408.51 924 407.76 938 407.39 952 407.95 966 408.96" fill="none" stroke="rgb(47,139,221)" stroke-width="0.9" opacity="0.57" stroke-linejoin="round"/><polyline points="-14 436.52 0 436.53 14 437.07 28 438.17 42 439.04 56 438.88 70 437.27 84 434.75 98 431.76 112 428.69 126 425.69 140 422.14 154 418.29 168 414.44 182 410.92 196 407.87 210 405.44 224 403.82 238 403.17 252 403.07 266 403.2 280 403.43 294 403.64 308 403.38 322 402.75 336 402.26 350 402.4 364 403.97 378 407.06 392 410.76 406 414.15 420 416.29 434 416.98 448 416.82 462 416.45 476 416.37 490 416.25 504 415.88 518 415.11 532 413.87 546 412.76 560 411.87 574 411.06 588 410.17 602 409.47 616 408.93 630 408.29 644 407.28 658 405.53 672 403.18 686 400.85 700 399.16 714 398.91 728 400.37 742 402.79 756 405.35 770 407.34 784 408.63 798 409.53 812 410.35 826 411.35 840 412.41 854 413.43 868 414.34 882 415.09 896 415.37 910 415.25 924 415.01 938 414.88 952 414.6 966 413.78" fill="none" stroke="rgb(44,142,220)" stroke-width="0.9" opacity="0.57" stroke-linejoin="round"/><polyline points="-14 452.98 0 452.92 14 453.2 28 454.02 42 455.3 56 457.01 70 458.73 84 459.81 98 460.3 112 460.26 126 459.78 140 459.05 154 458.17 168 457.27 182 456.57 196 456.84 210 457.68 224 458.41 238 458.44 252 458.15 266 457.7 280 456.98 294 455.86 308 454.3 322 452.53 336 450.79 350 449.38 364 448.18 378 446.89 392 445.72 406 444.89 420 444.31 434 443.4 448 442.45 462 441.81 476 441.94 490 443.22 504 445.01 518 446.55 532 447.09 546 446.56 560 445.43 574 444.21 588 443.35 602 442.1 616 440.04 630 437.37 644 434.33 658 431.66 672 429.75 686 428.21 700 426.64 714 425.18 728 424.6 742 424.55 756 424.66 770 424.4 784 423.16 798 421.38 812 419.61 826 418.23 840 416.13 854 413.43 868 410.6 882 408.17 896 407.35 910 407.86 924 408.8 938 409.27 952 408.52 966 406.97" fill="none" stroke="rgb(41,145,220)" stroke-width="0.9" opacity="0.56" stroke-linejoin="round"/><polyline points="-14 464.97 0 464.72 14 465.63 28 467.93 42 470.96 56 474.05 70 476.21 84 476.89 98 476.79 112 476.64 126 477.13 140 478.29 154 479.42 168 479.77 182 478.89 196 478.19 210 477.86 224 477.73 238 477.56 252 476.93 266 476.02 280 475.24 294 475 308 475.21 322 475.43 336 475.32 350 474.57 364 472.54 378 469.19 392 465.42 406 462.15 420 459.84 434 457.76 448 456.12 462 455.18 476 455.39 490 457.42 504 460.22 518 462.6 532 463.43 546 463.45 560 463.13 574 462.57 588 461.83 602 460.28 616 457.95 630 455.45 644 453.34 658 451.28 672 448.67 686 445.94 700 443.5 714 442.22 728 442.62 742 443.51 756 443.66 770 442.2 784 440.14 798 437.91 812 435.82 826 434.2 840 433.32 854 432.89 868 432.55 882 431.92 896 431.19 910 430.58 924 430.15 938 430 952 429.05 966 426.98" fill="none" stroke="rgb(38,148,219)" stroke-width="0.9" opacity="0.55" stroke-linejoin="round"/><polyline points="-14 470.21 0 469.6 14 470.34 28 472.06 42 474.04 56 475.54 70 476.08 84 476.02 98 475.79 112 475.82 126 476.32 140 476.85 154 477.35 168 477.86 182 478.55 196 480.24 210 482.41 224 484.27 238 485.09 252 485.27 266 485.27 280 485.24 294 485.37 308 485.87 322 486.72 336 487.83 350 489.05 364 489.49 378 488.62 392 487.62 406 487.68 420 489.66 434 492.7 448 495.75 462 497.74 476 497.7 490 495.7 504 492.64 518 489.44 532 486.97 546 484.9 560 482.86 574 480.67 588 478.19 602 475.41 616 472.45 630 469.44 644 466.47 658 463.68 672 461.14 686 458.85 700 456.78 714 454.85 728 452.95 742 451.26 756 449.94 770 449.14 784 448.7 798 448.41 812 448.08 826 447.56 840 447.18 854 447.12 868 447.44 882 448.23 896 450.03 910 452.35 924 454.35 938 455.15 952 454.9 966 454.12" fill="none" stroke="rgb(36,151,218)" stroke-width="0.9" opacity="0.55" stroke-linejoin="round"/><polyline points="-14 471.01 0 470.16 14 471.09 28 473.32 42 475.97 56 478.18 70 479.18 84 479.16 98 478.83 112 478.92 126 479.91 140 481.26 154 482.74 168 484.17 182 485.49 196 487.09 210 488.86 224 490.53 238 491.88 252 493.56 266 495.6 280 497.7 294 499.55 308 501.19 322 502.87 336 504.66 350 506.67 364 508.73 378 510.63 392 512.6 406 514.83 420 517.34 434 519.51 448 521.14 462 522.02 476 522.1 490 521.77 504 521.06 518 519.92 532 518.26 546 515.92 560 513.12 574 510.21 588 507.52 602 504.66 616 501.32 630 497.55 644 493.35 658 489.47 672 486.56 686 484.31 700 482.42 714 480.65 728 478.97 742 477.44 756 476.08 770 475.06 784 474.71 798 474.64 812 474.43 826 473.74 840 473.14 854 472.92 868 473.22 882 474.18 896 475.34 910 476.36 924 477.07 938 477.33 952 477.1 966 476.57" fill="none" stroke="rgb(33,154,218)" stroke-width="0.9" opacity="0.54" stroke-linejoin="round"/><polyline points="-14 476.74 0 476.55 14 476.36 28 475.97 42 475.65 56 475.65 70 476.21 84 477.24 98 478.51 112 479.79 126 480.87 140 481.89 154 483.37 168 485.82 182 489.72 196 494.79 210 499.99 224 504.25 238 506.55 252 507.26 266 507.29 280 507.36 294 508.14 308 510.07 322 512.79 336 515.85 350 518.78 364 521.47 378 524.21 392 526.91 406 529.46 420 531.64 434 533.05 448 533.84 462 534.16 476 534.24 490 534.49 504 534.61 518 534.22 532 532.97 546 530.83 560 528.25 574 525.67 588 523.55 602 522.2 616 521.35 630 520.53 644 519.3 658 517.8 672 516.45 686 515.08 700 513.55 714 511.69 728 509.36 742 506.59 756 503.37 770 499.54 784 494.83 798 490.08 812 486.24 826 484.09 840 482.84 854 482.24 868 482.3 882 483.06 896 484.54 910 486.29 924 487.74 938 488.31 952 487.36 966 485.19" fill="none" stroke="rgb(30,157,217)" stroke-width="0.9" opacity="0.53" stroke-linejoin="round"/><polyline points="-14 492.19 0 492.04 14 492.88 28 494.79 42 496.85 56 498.15 70 498.13 84 497.45 98 496.78 112 496.83 126 497.97 140 499.47 154 501.24 168 503.29 182 505.57 196 507.65 210 509.51 224 511.19 238 512.71 252 513.83 266 514.58 280 515.13 294 515.64 308 517.54 322 520.96 336 524.65 350 527.37 364 528.9 378 530.35 392 531.84 406 533.5 420 535.4 434 537.33 448 538.95 462 539.91 476 539.72 490 537.83 504 535.23 518 533.09 532 532.49 546 532.89 560 533.41 574 533.4 588 532.23 602 530.89 616 529.85 630 528.66 644 526.86 658 523.58 672 519.06 686 514.64 700 511.68 714 510.79 728 510.57 742 510.21 756 508.95 770 506.52 784 504.44 798 502.8 812 501.46 826 500.29 840 499.13 854 498.1 868 497.34 882 496.95 896 495.75 910 493.87 924 492.15 938 491.45 952 492.66 966 495.4" fill="none" stroke="rgb(27,160,216)" stroke-width="0.9" opacity="0.52" stroke-linejoin="round"/><polyline points="-14 515.14 0 515.83 14 514.95 28 512.91 42 510.63 56 509.04 70 508.5 84 508.35 98 508.61 112 509.3 126 510.42 140 511.8 154 513.32 168 514.86 182 516.39 196 518.41 210 520.63 224 522.62 238 523.91 252 524.08 266 523.59 280 523.14 294 523.39 308 523.72 322 523.56 336 523.26 350 523.16 364 523.35 378 523.5 392 523.52 406 523.31 420 522.96 434 522.83 448 522.84 462 522.89 476 522.87 490 522.67 504 522.29 518 521.74 532 521.02 546 520.01 560 518.82 574 517.61 588 516.58 602 515.31 616 513.72 630 512.1 644 510.72 658 510.18 672 510.61 686 511.48 700 512.26 714 512.54 728 512.39 742 512.08 756 511.87 770 512.09 784 513.03 798 514.28 812 515.33 826 515.82 840 516.46 854 517.38 868 518.49 882 519.67 896 520.08 910 519.77 924 519.24 938 518.97 952 519.68 966 521.34" fill="none" stroke="rgb(24,163,216)" stroke-width="0.9" opacity="0.52" stroke-linejoin="round"/><polyline points="-14 523.13 0 523.66 14 522.8 28 520.68 42 518.01 56 515.51 70 513.44 84 511.39 98 509.67 112 508.6 126 508.67 140 510.28 154 512.62 168 514.77 182 515.9 196 516.09 210 515.89 224 515.79 238 516.23 252 516.31 266 515.81 280 515.01 294 514.2 308 513.59 322 513.24 336 513.21 350 513.52 364 514.28 378 515.54 392 517.3 406 519.53 420 522.2 434 525.06 448 527.53 462 529.02 476 529.21 490 529.15 504 528.99 518 528.71 532 528.33 546 528.43 560 528.91 574 529.43 588 529.66 602 529.17 616 528.23 630 527.33 644 526.98 658 527.09 672 527.35 686 528.01 700 529.32 714 531.04 728 532.38 742 533.54 756 534.81 770 536.36 784 537.96 798 539.51 812 540.93 826 542.15 840 543.06 854 543.58 868 543.65 882 543.22 896 542.75 910 542.44 924 542.27 938 542.22 952 542.41 966 543.07" fill="none" stroke="rgb(21,167,215)" stroke-width="0.9" opacity="0.51" stroke-linejoin="round"/><polyline points="-14 537.6 0 537.48 14 536.77 28 534.89 42 532.22 56 529.14 70 526.24 84 524.02 98 522.41 112 521.32 126 520.44 140 519.22 154 518.08 168 517.54 182 518.06 196 519.49 210 521.27 224 522.85 238 523.69 252 523.57 266 522.95 280 522.34 294 522.29 308 522.69 322 523.23 336 523.86 350 524.57 364 526.4 378 530.21 392 534.76 406 538.79 420 541.12 434 541.72 448 541.35 462 540.8 476 540.99 490 542.67 504 544.93 518 546.68 532 546.89 546 546.1 560 545.05 574 544.26 588 544.2 602 543.72 616 542.55 630 541.44 644 541.14 658 541.94 672 543.4 686 545.33 700 547.52 714 550.01 728 552.96 742 555.92 756 558.42 770 559.93 784 560.32 798 560.28 812 560.53 826 561.66 840 562.88 854 563.86 868 564.49 882 564.73 896 565.45 910 566.61 924 567.68 938 568.12 952 568.55 966 569.58" fill="none" stroke="rgb(18,170,215)" stroke-width="0.9" opacity="0.50" stroke-linejoin="round"/><polyline points="-14 550.89 0 551 14 551.21 28 551.71 42 552.35 56 552.98 70 553.81 84 555.28 98 557.06 112 558.81 126 560.35 140 562.06 154 563.98 168 566.11 182 568.39 196 570.5 210 572.28 224 573.62 238 574.43 252 574.42 266 573.78 280 572.86 294 572.03 308 570.57 322 568.4 336 566.32 350 565.17 364 565.11 378 565.41 392 565.89 406 566.4 420 566.72 434 566.7 448 566.52 462 566.34 476 566.53 490 567.87 504 569.6 518 570.81 532 570.59 546 568.84 560 566.51 574 564.64 588 564.23 602 565.39 616 567.31 630 569.29 644 570.62 658 571.67 672 573.2 686 574.86 700 576.28 714 576.72 728 575.76 742 574.41 756 573.72 770 574.37 784 575.39 798 576.49 812 577.54 826 578.49 840 579.89 854 581.42 868 582.6 882 582.93 896 582.55 910 581.9 924 581.29 938 581.03 952 581.22 966 581.62" fill="none" stroke="rgb(15,173,214)" stroke-width="0.9" opacity="0.49" stroke-linejoin="round"/><polyline points="-14 576.97 0 576.43 14 577.28 28 579.3 42 581.7 56 583.69 70 584.33 84 583.63 98 582.74 112 582.83 126 584.66 140 587.16 154 589.76 168 592 182 593.55 196 595.13 210 596.71 224 598.08 238 599.04 252 599.76 266 600.5 280 601.41 294 602.63 308 603.69 322 604.25 336 604.45 350 604.41 364 604.81 378 606 392 607.18 406 607.51 420 606.4 434 604.45 448 602.42 462 601.07 476 600.78 490 600.05 504 598.69 518 596.8 532 594.46 546 591.86 560 589.32 574 587.18 588 585.79 602 586.25 616 588.28 630 590.77 644 592.65 658 593.06 672 592.31 686 591.02 700 589.83 714 589 728 588.03 742 586.85 756 585.44 770 583.75 784 581.76 798 579.83 812 578.36 826 577.71 840 577.71 854 577.99 868 578.2 882 577.98 896 577.32 910 576.51 924 575.84 938 575.58 952 575.71 966 576" fill="none" stroke="rgb(12,176,213)" stroke-width="0.9" opacity="0.48" stroke-linejoin="round"/><polyline points="-14 619.05 0 619.31 14 618.53 28 616.65 42 614.32 56 612.22 70 610.74 84 609.73 98 609.29 112 609.54 126 610.26 140 610.51 154 610.56 168 610.86 182 611.8 196 613.5 210 615.49 224 617.29 238 618.43 252 619.23 266 620.08 280 621.18 294 622.74 308 624.96 322 627.54 336 629.95 350 631.66 364 632.29 378 632.16 392 631.95 406 632.3 420 633.37 434 634.16 448 634.63 462 634.84 476 635.11 490 636.5 504 638.18 518 639.03 532 638.05 546 635.69 560 632.59 574 629.21 588 625.96 602 622.96 616 620.1 630 617.31 644 614.53 658 611.98 672 609.8 686 607.84 700 605.92 714 603.81 728 601.24 742 598.11 756 594.31 770 589.68 784 584.31 798 579.08 812 574.92 826 572.6 840 571.28 854 570.58 868 570.4 882 570.63 896 571.41 910 572.47 924 573.4 938 573.78 952 573.88 966 574.13" fill="none" stroke="rgb(9,179,213)" stroke-width="0.9" opacity="0.48" stroke-linejoin="round"/><polyline points="-14 626.02 0 627.21 14 626.49 28 624.72 42 622.5 56 620.43 70 618.49 84 616.22 98 614.46 112 614.07 126 615.89 140 619.77 154 624.65 168 629.38 182 632.93 196 635.09 210 636.36 224 637.25 238 638.25 252 639.98 266 642.05 280 643.82 294 644.67 308 645.24 322 646.19 336 647.27 350 648.28 364 648.58 378 647.82 392 646.55 406 645.37 420 644.77 434 644.76 448 645.03 462 645.31 476 645.3 490 644.97 504 644.48 518 644 532 643.64 546 642.73 560 641.16 574 639.07 588 636.57 602 633.69 616 630.65 630 627.75 644 625.28 658 623.44 672 621.98 686 620.62 700 619.07 714 617.23 728 615.46 742 613.87 756 612.57 770 611.49 784 610.1 798 608.59 812 607.25 826 606.34 840 606 854 605.75 868 605 882 603.21 896 600.72 910 598.28 924 596.44 938 595.75 952 596.08 966 596.88" fill="none" stroke="rgb(6,182,212)" stroke-width="0.9" opacity="0.47" stroke-linejoin="round"/></g>
</svg>
